# xmcd
# 
# Track frame offsets:
#     150
#     20050
#     50835
#     91430
#     111895
#     135010
#     160380
#     177700
#     207235
#     227980
# 
# Disc length: 3419
# 
# Revision: 9
# Processed by: cddbd v1.5.2PL0 Copyright (c) Steve Scherf et al.
# Submitted via: BonkEnc v1.0.6
# 
DISCID=8d0d590a
DTITLE=Varios - Sons de Planeta
DYEAR=1995
DGENRE=New Age
TTITLE0=Bill Douglas - Heaven in a Wild Flower
TTITLE1=Corciolli - O Último Dia de Cada Ano
TTITLE2=Raphael - Angels of the Deep
TTITLE3=Gell Campanatti - Destiny
TTITLE4=David Darling - Minor Blue
TTITLE5=Priscilla Ermel - Martim Pescador
TTITLE6=Tom and Susan Wasinger - Ouroboros
TTITLE7=Ya Nur - Flor de Pessegueiro
TTITLE8=Peter Kater and R. Carlos Nakai - Gathering of Souls
TTITLE9=Ed Ribeiro Lima and Cia. - Às Terças
EXTD=YEAR: 1995 ID3G: 10
EXTT0=Bill Douglas
EXTT1=Corciolli
EXTT2=Raphael
EXTT3=Gell Campanatti
EXTT4=David Darling
EXTT5=Priscilla Ermel
EXTT6=Tom and Susan Wasinger
EXTT7=Ya Nur
EXTT8=Peter Kater and R. Carlos Nakai
EXTT9=Ed Ribeiro Lima and Cia.
PLAYORDER=
